<svg width="69" height="59" viewBox="0 0 69 59" fill="none" xmlns="http://www.w3.org/2000/svg">
<path d="M68.0938 29.4375C68.0938 28.375 67.7188 27.2188 66.5 26.0625L41.8438 3C40.1875 1.4375 39.1562 0.78125 37.625 0.78125C35.4375 0.78125 33.875 2.5 33.875 4.59375V16.4062H8.53125C3.59375 16.4062 0.71875 19.2188 0.71875 24.0625V34.8438C0.71875 39.6875 3.59375 42.5 8.53125 42.5H33.875V54.4375C33.875 56.5312 35.4375 58.0938 37.5625 58.0938C39.0938 58.0938 40.3438 57.4688 41.8438 56.0625L66.5 32.7812C67.6875 31.6562 68.0938 30.4688 68.0938 29.4375ZM62.4688 29.4375C62.4688 29.625 62.4062 29.7812 62.1562 30.0312L39.875 51.0938C39.7188 51.2812 39.5312 51.375 39.3438 51.375C39.0938 51.375 38.9062 51.1875 38.9062 50.9062V38.8125C38.9062 38.0938 38.5938 37.7812 37.875 37.7812H8.59375C6.59375 37.7812 5.4375 36.625 5.4375 34.5938V24.3125C5.4375 22.2812 6.59375 21.125 8.59375 21.125H37.875C38.5938 21.125 38.9062 20.8125 38.9062 20.0938V7.6875C38.9062 7.4375 39.0938 7.25 39.375 7.25C39.5625 7.25 39.75 7.375 39.9062 7.5L62.1562 28.8438C62.375 29.0625 62.4688 29.25 62.4688 29.4375Z" fill="url(#paint0_linear_178_1700)"/>
<defs>
<linearGradient id="paint0_linear_178_1700" x1="-7" y1="-9" x2="82.5047" y2="5.07633" gradientUnits="userSpaceOnUse">
<stop stop-color="#FF784E"/>
<stop offset="1" stop-color="#FB347C"/>
</linearGradient>
</defs>
</svg>
