<svg width="132" height="131" viewBox="0 0 132 131" fill="none" xmlns="http://www.w3.org/2000/svg">
<path d="M42.6275 25.8894C42.2168 26.3 41.9052 26.795 41.6449 27.3377L41.6155 27.3083L0.49188 119.947L0.532212 119.987C-0.230424 121.465 1.04552 124.471 3.65975 127.089C6.27398 129.703 9.28052 130.979 10.7581 130.216L10.7948 130.253L103.433 89.1258L103.404 89.0928C103.943 88.8362 104.438 88.5245 104.852 88.1065C110.579 82.3794 101.292 63.8085 84.1141 46.6272C66.9292 29.4459 48.3583 20.1623 42.6275 25.8894Z" fill="#DD2E44"/>
<path d="M47.6653 42.4324L1.52584 117.618L0.49188 119.946L0.532212 119.987C-0.230424 121.464 1.04552 124.471 3.65975 127.089C4.51038 127.939 5.39401 128.585 6.25931 129.131L62.3314 60.765L47.6653 42.4324Z" fill="#EA596E"/>
<path d="M84.3744 46.341C101.497 63.471 111.004 81.7302 105.6 87.1274C100.199 92.5318 81.9398 83.0282 64.8062 65.9056C47.6799 48.7756 38.1763 30.509 43.577 25.1082C48.9815 19.7074 67.2407 29.211 84.3744 46.341Z" fill="#A0041E"/>
<path d="M68.1612 48.3321C67.4315 48.9224 66.4782 49.2304 65.4699 49.1204C62.2874 48.7757 59.6108 47.6684 57.7373 45.9195C55.7537 44.0679 54.7747 41.582 55.0424 39.0925C55.5117 34.722 59.8968 30.7108 67.3729 31.5174C70.2804 31.8291 71.5784 30.8941 71.6224 30.4468C71.6737 30.0032 70.6067 28.8115 67.6992 28.4962C64.5167 28.1516 61.8401 27.0443 59.9628 25.2953C57.9792 23.4438 56.9966 20.9579 57.2679 18.4683C57.7446 14.0978 62.1261 10.0866 69.5948 10.8969C71.714 11.1243 72.8323 10.6879 73.3053 10.4056C73.6829 10.1746 73.8333 9.95464 73.8479 9.82631C73.8919 9.38266 72.8396 8.19104 69.9248 7.87572C67.9118 7.65573 66.4526 5.85181 66.6762 3.83522C66.8925 1.8223 68.6928 0.366696 70.7131 0.586687C78.1818 1.38965 81.6136 6.24046 81.1406 10.6146C80.664 14.9924 76.2825 18.9963 68.8065 18.1933C66.6872 17.9623 65.5799 18.4023 65.1033 18.6846C64.7256 18.9119 64.5716 19.1356 64.557 19.2603C64.5093 19.7076 65.5689 20.8955 68.4838 21.2108C75.9525 22.0175 79.3844 26.8646 78.9114 31.2388C78.4384 35.6093 74.0569 39.6204 66.5846 38.8101C64.4653 38.5828 63.3507 39.0228 62.8741 39.3014C62.4927 39.5361 62.3461 39.7561 62.3314 39.8808C62.2837 40.3244 63.3434 41.516 66.2546 41.8313C68.2638 42.0513 69.7268 43.8589 69.5031 45.8718C69.4004 46.8765 68.8908 47.7454 68.1612 48.3321Z" fill="#AA8DD8"/>
<path d="M112.42 82.2404C119.654 80.1981 124.644 83.4247 125.832 87.6595C127.02 91.8907 124.446 97.2474 117.215 99.2824C114.392 100.074 113.545 101.424 113.659 101.853C113.783 102.285 115.217 102.997 118.033 102.201C125.263 100.166 130.253 103.393 131.441 107.624C132.637 111.859 130.055 117.208 122.821 119.247C120.002 120.039 119.151 121.391 119.276 121.82C119.397 122.249 120.827 122.961 123.646 122.169C125.59 121.622 127.621 122.755 128.167 124.702C128.71 126.653 127.577 128.677 125.626 129.227C118.4 131.262 113.406 128.043 112.211 123.804C111.023 119.573 113.6 114.223 120.838 112.185C123.661 111.389 124.508 110.044 124.383 109.611C124.266 109.182 122.836 108.467 120.02 109.259C112.783 111.298 107.796 108.078 106.604 103.836C105.413 99.605 107.99 94.2556 115.224 92.2133C118.04 91.425 118.887 90.0684 118.77 89.6431C118.645 89.2104 117.219 88.4991 114.399 89.2911C112.449 89.8411 110.429 88.7045 109.879 86.7575C109.332 84.8143 110.469 82.7904 112.42 82.2404Z" fill="#77B255"/>
<path d="M84.3342 72.352C83.2562 72.352 82.1929 71.879 81.467 70.9771C80.202 69.3931 80.4624 67.0869 82.039 65.8219C82.8383 65.1803 101.904 50.2062 128.849 54.0597C130.855 54.3457 132.248 56.201 131.962 58.2066C131.676 60.2085 129.836 61.6164 127.812 61.3158C104.005 57.9352 86.7944 71.4134 86.6258 71.549C85.9438 72.0917 85.1372 72.352 84.3342 72.352Z" fill="#AA8DD8"/>
<path d="M21.0976 57.0988C20.7493 57.0988 20.3936 57.0475 20.0416 56.9449C18.1021 56.3619 17.0021 54.3196 17.5851 52.38C21.7392 38.5463 25.5048 16.4702 20.8776 10.7137C20.3606 10.0611 19.5797 9.41945 17.7904 9.55511C14.3512 9.8191 14.6775 17.0751 14.6812 17.1485C14.8352 19.1687 13.3172 20.9287 11.3007 21.079C9.25108 21.2036 7.52049 19.715 7.37016 17.6948C6.99251 12.6387 8.56544 2.90038 17.2404 2.24408C21.1123 1.95076 24.3278 3.29637 26.5974 6.11959C35.2907 16.9395 26.4654 48.3065 24.6101 54.4883C24.1335 56.0759 22.6742 57.0988 21.0976 57.0988Z" fill="#77B255"/>
<path d="M93.4967 38.7659C96.5342 38.7659 98.9965 36.3036 98.9965 33.2661C98.9965 30.2287 96.5342 27.7664 93.4967 27.7664C90.4593 27.7664 87.9969 30.2287 87.9969 33.2661C87.9969 36.3036 90.4593 38.7659 93.4967 38.7659Z" fill="#5C913B"/>
<path d="M7.33358 71.7647C11.3835 71.7647 14.6666 68.4816 14.6666 64.4317C14.6666 60.3817 11.3835 57.0986 7.33358 57.0986C3.28366 57.0986 0.000549316 60.3817 0.000549316 64.4317C0.000549316 68.4816 3.28366 71.7647 7.33358 71.7647Z" fill="#9266CC"/>
<path d="M119.162 75.4312C122.2 75.4312 124.662 72.9689 124.662 69.9314C124.662 66.894 122.2 64.4316 119.162 64.4316C116.125 64.4316 113.663 66.894 113.663 69.9314C113.663 72.9689 116.125 75.4312 119.162 75.4312Z" fill="#5C913B"/>
<path d="M86.1637 119.429C89.2012 119.429 91.6635 116.967 91.6635 113.929C91.6635 110.892 89.2012 108.43 86.1637 108.43C83.1263 108.43 80.6639 110.892 80.6639 113.929C80.6639 116.967 83.1263 119.429 86.1637 119.429Z" fill="#5C913B"/>
<path d="M102.663 20.4334C106.713 20.4334 109.996 17.1503 109.996 13.1004C109.996 9.05045 106.713 5.76733 102.663 5.76733C98.6131 5.76733 95.33 9.05045 95.33 13.1004C95.33 17.1503 98.6131 20.4334 102.663 20.4334Z" fill="#FFCC4D"/>
<path d="M119.162 35.0994C122.2 35.0994 124.662 32.6371 124.662 29.5996C124.662 26.5622 122.2 24.0999 119.162 24.0999C116.125 24.0999 113.663 26.5622 113.663 29.5996C113.663 32.6371 116.125 35.0994 119.162 35.0994Z" fill="#FFCC4D"/>
<path d="M108.163 49.7654C111.2 49.7654 113.663 47.3031 113.663 44.2656C113.663 41.2282 111.2 38.7659 108.163 38.7659C105.125 38.7659 102.663 41.2282 102.663 44.2656C102.663 47.3031 105.125 49.7654 108.163 49.7654Z" fill="#FFCC4D"/>
<path d="M27.4994 90.0972C30.5369 90.0972 32.9992 87.6349 32.9992 84.5974C32.9992 81.56 30.5369 79.0977 27.4994 79.0977C24.462 79.0977 21.9996 81.56 21.9996 84.5974C21.9996 87.6349 24.462 90.0972 27.4994 90.0972Z" fill="#FFCC4D"/>
</svg>
