<svg width="80" height="79" viewBox="0 0 80 79" fill="none" xmlns="http://www.w3.org/2000/svg">
<g filter="url(#filter0_d_435_774)">
<rect x="8.5" y="6" width="63" height="63" rx="12" fill="white"/>
<path d="M24.4785 32.2285C22.9668 32.2285 22.2109 31.4609 22.2109 29.9258V25.7246C22.2109 23.7324 22.7441 22.209 23.8105 21.1543C24.877 20.0879 26.4121 19.5547 28.416 19.5547H32.6348C34.1582 19.5547 34.9199 20.3105 34.9199 21.8223C34.9199 23.334 34.1582 24.0898 32.6348 24.0898H28.9082C28.2051 24.0898 27.666 24.2656 27.291 24.6172C26.9277 24.9688 26.7461 25.5195 26.7461 26.2695V29.9258C26.7461 31.4609 25.9902 32.2285 24.4785 32.2285ZM55.5039 32.2285C53.9922 32.2285 53.2363 31.4609 53.2363 29.9258V26.2695C53.2363 25.5195 53.0488 24.9688 52.6738 24.6172C52.2988 24.2656 51.7598 24.0898 51.0566 24.0898H47.3477C45.8242 24.0898 45.0625 23.334 45.0625 21.8223C45.0625 20.3105 45.8242 19.5547 47.3477 19.5547H51.5664C53.5703 19.5547 55.1055 20.0879 56.1719 21.1543C57.2383 22.209 57.7715 23.7324 57.7715 25.7246V29.9258C57.7715 31.4609 57.0156 32.2285 55.5039 32.2285ZM28.416 55.0977C26.4121 55.0977 24.877 54.5645 23.8105 53.498C22.7441 52.4434 22.2109 50.9199 22.2109 48.9277V44.7266C22.2109 43.1914 22.9668 42.4238 24.4785 42.4238C25.9902 42.4238 26.7461 43.1914 26.7461 44.7266V48.3828C26.7461 49.1328 26.9277 49.6836 27.291 50.0352C27.666 50.3867 28.2051 50.5625 28.9082 50.5625H32.6348C34.1582 50.5625 34.9199 51.3184 34.9199 52.8301C34.9199 54.3418 34.1582 55.0977 32.6348 55.0977H28.416ZM47.3477 55.0977C45.8242 55.0977 45.0625 54.3418 45.0625 52.8301C45.0625 51.3184 45.8242 50.5625 47.3477 50.5625H51.0566C51.7598 50.5625 52.2988 50.3867 52.6738 50.0352C53.0488 49.6836 53.2363 49.1328 53.2363 48.3828V44.7266C53.2363 43.1914 53.9922 42.4238 55.5039 42.4238C57.0156 42.4238 57.7715 43.1914 57.7715 44.7266V48.9277C57.7715 50.9199 57.2383 52.4434 56.1719 53.498C55.1055 54.5645 53.5703 55.0977 51.5664 55.0977H47.3477ZM33.5664 36.1836C33.1094 36.1836 32.7285 36.0312 32.4238 35.7266C32.1191 35.4219 31.9668 35.0352 31.9668 34.5664V32.1934C31.9668 31.7363 32.1191 31.3555 32.4238 31.0508C32.7285 30.7461 33.1094 30.5938 33.5664 30.5938C34.0352 30.5938 34.416 30.7461 34.709 31.0508C35.0137 31.3438 35.166 31.7246 35.166 32.1934V34.5664C35.166 35.0352 35.0137 35.4219 34.709 35.7266C34.416 36.0312 34.0352 36.1836 33.5664 36.1836ZM38.6113 40.2617C38.1309 40.2617 37.7441 40.1387 37.4512 39.8926C37.1699 39.6465 37.0293 39.3066 37.0293 38.873C37.0293 38.5098 37.1582 38.2051 37.416 37.959C37.6738 37.7012 37.9902 37.5723 38.3652 37.5723H38.8047C38.8633 37.5723 38.9102 37.5547 38.9453 37.5195C38.9922 37.4844 39.0156 37.4258 39.0156 37.3438V31.8945C39.0156 31.4961 39.1387 31.1797 39.3848 30.9453C39.6309 30.6992 39.9531 30.5762 40.3516 30.5762C40.75 30.5762 41.0723 30.6992 41.3184 30.9453C41.5645 31.1797 41.6875 31.4961 41.6875 31.8945V37.3613C41.6875 38.2988 41.4355 39.0195 40.9316 39.5234C40.4277 40.0156 39.707 40.2617 38.7695 40.2617C38.7461 40.2617 38.7168 40.2617 38.6816 40.2617C38.6582 40.2617 38.6348 40.2617 38.6113 40.2617ZM46.416 36.1836C45.9473 36.1836 45.5605 36.0312 45.2559 35.7266C44.9512 35.4219 44.7988 35.0352 44.7988 34.5664V32.1934C44.7988 31.7246 44.9512 31.3438 45.2559 31.0508C45.5605 30.7461 45.9473 30.5938 46.416 30.5938C46.873 30.5938 47.248 30.7461 47.541 31.0508C47.8457 31.3555 47.998 31.7363 47.998 32.1934V34.5664C47.998 35.0352 47.8457 35.4219 47.541 35.7266C47.248 36.0312 46.873 36.1836 46.416 36.1836ZM39.9121 45.8691C38.7871 45.8691 37.6973 45.6523 36.6426 45.2188C35.5879 44.7852 34.7266 44.1699 34.0586 43.373C33.918 43.2207 33.8184 43.0684 33.7598 42.916C33.7012 42.752 33.6719 42.5879 33.6719 42.4238C33.6719 42.0371 33.8008 41.7207 34.0586 41.4746C34.3164 41.2168 34.6387 41.0879 35.0254 41.0879C35.248 41.0879 35.4355 41.1348 35.5879 41.2285C35.7402 41.3223 35.9043 41.4512 36.0801 41.6152C36.5723 42.1074 37.1582 42.5 37.8379 42.793C38.5176 43.0742 39.209 43.2148 39.9121 43.2148C40.6621 43.2148 41.377 43.0684 42.0566 42.7754C42.748 42.4824 43.3164 42.0957 43.7617 41.6152C44.1016 41.2637 44.4531 41.0879 44.8164 41.0879C45.1914 41.0879 45.5078 41.2168 45.7656 41.4746C46.0234 41.7207 46.1523 42.0371 46.1523 42.4238C46.1523 42.623 46.123 42.8047 46.0645 42.9688C46.0059 43.1328 45.9121 43.2793 45.7832 43.4082C45.0098 44.1816 44.1016 44.7852 43.0586 45.2188C42.0273 45.6523 40.9785 45.8691 39.9121 45.8691Z" fill="url(#paint0_linear_435_774)"/>
<rect x="9" y="6.5" width="62" height="62" rx="11.5" stroke="#333333"/>
</g>
<defs>
<filter id="filter0_d_435_774" x="0.5" y="0" width="79" height="79" filterUnits="userSpaceOnUse" color-interpolation-filters="sRGB">
<feFlood flood-opacity="0" result="BackgroundImageFix"/>
<feColorMatrix in="SourceAlpha" type="matrix" values="0 0 0 0 0 0 0 0 0 0 0 0 0 0 0 0 0 0 127 0" result="hardAlpha"/>
<feMorphology radius="4" operator="dilate" in="SourceAlpha" result="effect1_dropShadow_435_774"/>
<feOffset dy="2"/>
<feGaussianBlur stdDeviation="2"/>
<feComposite in2="hardAlpha" operator="out"/>
<feColorMatrix type="matrix" values="0 0 0 0 0 0 0 0 0 0 0 0 0 0 0 0 0 0 0.08 0"/>
<feBlend mode="normal" in2="BackgroundImageFix" result="effect1_dropShadow_435_774"/>
<feBlend mode="normal" in="SourceGraphic" in2="effect1_dropShadow_435_774" result="shape"/>
</filter>
<linearGradient id="paint0_linear_435_774" x1="17.5" y1="16" x2="67.8605" y2="23.8741" gradientUnits="userSpaceOnUse">
<stop stop-color="#FF784E"/>
<stop offset="1" stop-color="#FB347C"/>
</linearGradient>
</defs>
</svg>
