<svg width="16" height="16" viewBox="0 0 16 16" fill="none" xmlns="http://www.w3.org/2000/svg">
<path d="M6.5275 10.9589C6.10367 10.8358 5.59781 10.5419 5.33121 10.2753C3.47867 8.42273 3.47183 5.78406 5.32437 3.93152L7.87418 1.38855C9.72671 -0.463988 12.3586 -0.463988 14.2248 1.39539C16.0773 3.24793 16.0978 5.90027 14.2316 7.73914L12.4748 9.47546C12.7961 8.56629 12.6183 7.51355 12.2834 6.72742L12.6935 6.31726C13.6916 5.31921 13.6847 3.93836 12.6798 2.93347C11.675 1.92859 10.3009 1.92175 9.30289 2.92664L6.86246 5.36023C5.85757 6.35828 5.87125 7.7323 6.87613 8.74402C7.16324 9.03113 7.71011 9.26355 8.15445 9.34558L6.5275 10.9589ZM9.09097 4.61511C9.5148 4.73816 10.0275 5.0321 10.2873 5.29871C12.1466 7.15125 12.1535 9.78992 10.3009 11.6425L7.74429 14.1923C5.89175 16.0448 3.25992 16.0448 1.40054 14.1786C-0.451997 12.3261 -0.479341 9.67371 1.39371 7.83484L3.15054 6.10535C2.82242 7.00769 3.00015 8.06726 3.34195 8.84656L2.92496 9.25671C1.92691 10.2616 1.93375 11.6356 2.94546 12.6405C3.94351 13.6454 5.31753 13.6522 6.32242 12.6542L8.76285 10.2206C9.76089 9.22254 9.75406 7.84168 8.74234 6.83679C8.45523 6.54968 7.90835 6.31043 7.46402 6.22839L9.09097 4.61511Z" fill="url(#paint0_linear_601_773)"/>
<defs>
<linearGradient id="paint0_linear_601_773" x1="0" y1="0" x2="17.518" y2="2.62447" gradientUnits="userSpaceOnUse">
<stop stop-color="#FF784E"/>
<stop offset="1" stop-color="#FB347C"/>
</linearGradient>
</defs>
</svg>
