<svg width="114" height="30" viewBox="0 0 114 30" fill="none" xmlns="http://www.w3.org/2000/svg">
<path d="M14.9531 26.1367C14.9531 28.4219 13.4297 29.1719 11.4961 28.0703L2.49609 22.8672C1.19531 22.1172 0.84375 21.4258 0.84375 19.9844V9.28516C0.84375 7.21094 2.64844 6.63672 4.10156 7.46875L5.89453 8.51172V6.33203C5.89453 4.25781 7.71094 3.68359 9.15234 4.52734L10.7344 5.44141V3.55469C10.7344 1.48047 12.5391 0.90625 13.9922 1.73828L23.1445 7.03516C24.4336 7.78516 24.8438 8.51172 24.8438 9.98828V20.3945C24.8438 22.6914 23.3203 23.4414 21.3867 22.3281L20.0156 21.543V23.1836C20.0156 25.4688 18.4805 26.2305 16.5586 25.1172L14.9531 24.1914V26.1367ZM22.1367 19.832C22.2422 19.8906 22.3125 19.8438 22.3125 19.7383V10.0352C22.3125 9.60156 22.207 9.46094 21.8672 9.26172L13.4531 4.39844C13.3477 4.33984 13.2656 4.39844 13.2656 4.50391V6.90625L18.3047 9.8125C19.5938 10.5625 20.0156 11.2891 20.0156 12.7773V18.5898L22.1367 19.832ZM14.9531 15.7305V21.25L17.2969 22.6094C17.4023 22.668 17.4844 22.6211 17.4844 22.5156V12.8125C17.4844 12.3789 17.3672 12.2383 17.0391 12.0391L8.625 7.1875C8.51953 7.12891 8.42578 7.1875 8.42578 7.28125V9.97656L13.2539 12.7656C14.543 13.5156 14.9531 14.2422 14.9531 15.7305ZM11.9766 14.9922L3.5625 10.1289C3.45703 10.0703 3.375 10.1289 3.375 10.2344V19.8789C3.375 20.2656 3.46875 20.4531 3.80859 20.6523L12.2461 25.5625C12.3398 25.6211 12.4219 25.5742 12.4219 25.4688V15.7656C12.4219 15.332 12.3164 15.1914 11.9766 14.9922ZM37.24 9.676H40.432V13.924H37.24V9.676ZM31.288 8.5H46.552V10.996H31.288V8.5ZM31.288 4.156H46.36V6.676H34.456V9.844H31.288V4.156ZM28.792 12.412H48.88V14.908H28.792V12.412ZM31.096 16.084H46.456V21.796H34.264V23.74H31.12V19.588H43.312V18.436H31.096V16.084ZM31.12 23.092H47.032V25.492H31.12V23.092ZM56.8222 4.948C60.2062 4.948 62.6542 8.02 62.6542 12.868C62.6542 17.764 60.2062 20.836 56.8222 20.836C53.4382 20.836 50.9902 17.764 50.9902 12.868C50.9902 8.02 53.4382 4.948 56.8222 4.948ZM56.8222 7.852C55.1662 7.852 54.0622 9.604 54.0622 12.868C54.0622 16.18 55.1662 17.956 56.8222 17.956C58.4782 17.956 59.6062 16.18 59.6062 12.868C59.6062 9.604 58.4782 7.852 56.8222 7.852ZM65.0782 3.412H68.2942V25.636H65.0782V3.412ZM67.5742 11.788H71.5102V14.428H67.5742V11.788ZM87.1563 3.388H90.3723V25.612H87.1563V3.388ZM89.5323 11.884H93.4443V14.5H89.5323V11.884ZM81.3243 5.692H84.4443C84.4443 12.364 81.9003 18.076 74.5083 21.796L72.7323 19.372C78.5643 16.348 81.3243 12.268 81.3243 6.244V5.692ZM73.9563 5.692H82.9563V8.26H73.9563V5.692ZM110.338 3.412H113.554V25.636H110.338V3.412ZM103.786 5.716H106.954C106.954 12.508 104.65 18.076 96.7544 21.892L95.0984 19.348C101.482 16.276 103.786 12.244 103.786 6.292V5.716ZM96.2744 5.716H105.298V8.236H96.2744V5.716Z" fill="#007AFF"/>
</svg>
