<svg width="22" height="22" viewBox="0 0 22 22" fill="none" xmlns="http://www.w3.org/2000/svg">
<path d="M3.88672 21.8438C2.66016 21.8438 1.73828 21.5391 1.12109 20.9297C0.511719 20.3281 0.207031 19.4219 0.207031 18.2109V3.90234C0.207031 2.69141 0.511719 1.78516 1.12109 1.18359C1.73828 0.574219 2.66016 0.269531 3.88672 0.269531H18.1016C19.3281 0.269531 20.2461 0.574219 20.8555 1.18359C21.4727 1.78516 21.7812 2.69141 21.7812 3.90234V18.2109C21.7812 19.4219 21.4727 20.3281 20.8555 20.9297C20.2461 21.5391 19.3281 21.8438 18.1016 21.8438H3.88672ZM3.91016 19.957H18.0781C18.6562 19.957 19.1016 19.8047 19.4141 19.5C19.7344 19.1875 19.8945 18.7266 19.8945 18.1172V3.99609C19.8945 3.38672 19.7344 2.92969 19.4141 2.625C19.1016 2.3125 18.6562 2.15625 18.0781 2.15625H3.91016C3.32422 2.15625 2.875 2.3125 2.5625 2.625C2.25 2.92969 2.09375 3.38672 2.09375 3.99609V18.1172C2.09375 18.7266 2.25 19.1875 2.5625 19.5C2.875 19.8047 3.32422 19.957 3.91016 19.957ZM13.3203 16.8281C13.1641 16.9766 12.957 17.0469 12.6992 17.0391C12.4492 17.0312 12.2422 16.9492 12.0781 16.793L7.19141 12.1875C6.97266 11.9844 6.82422 11.7422 6.74609 11.4609C6.67578 11.1797 6.67578 10.8984 6.74609 10.6172C6.82422 10.3359 6.97266 10.0938 7.19141 9.89062L12.0781 5.29688C12.2578 5.125 12.4648 5.03516 12.6992 5.02734C12.9414 5.01953 13.1445 5.09766 13.3086 5.26172C13.4883 5.42578 13.582 5.63281 13.5898 5.88281C13.5977 6.13281 13.5117 6.34375 13.332 6.51562L8.51562 11.0391L13.332 15.5742C13.5039 15.7383 13.5898 15.9453 13.5898 16.1953C13.5898 16.4453 13.5 16.6562 13.3203 16.8281Z" fill="#D6D6D6"/>
</svg>
