<svg width="48" height="48" viewBox="0 0 48 48" fill="none" xmlns="http://www.w3.org/2000/svg">
<rect width="48" height="48" rx="12" fill="url(#paint0_linear_294_292)"/>
<path d="M11.7148 19.9805C11.7148 19.832 11.7617 19.707 11.8555 19.6055C11.9492 19.5039 12.0664 19.4453 12.207 19.4297C13.0039 19.3281 13.625 19.2227 14.0703 19.1133C14.5156 19.0117 14.8516 18.8438 15.0781 18.6094C15.3047 18.375 15.4805 18.0156 15.6055 17.5312C15.7383 17.0547 15.8867 16.3945 16.0508 15.5508C16.1133 15.2227 16.2969 15.0586 16.6016 15.0586C16.75 15.0586 16.875 15.1055 16.9766 15.1992C17.0781 15.3008 17.1406 15.4219 17.1641 15.5625C17.2656 16.3984 17.3711 17.0547 17.4805 17.5312C17.5977 18.0078 17.7734 18.3633 18.0078 18.5977C18.2422 18.8398 18.5898 19.0117 19.0508 19.1133C19.5195 19.2227 20.1641 19.3281 20.9844 19.4297C21.3281 19.4688 21.5 19.6523 21.5 19.9805C21.5 20.3086 21.3242 20.4922 20.9727 20.5312C20.1758 20.625 19.5547 20.7227 19.1094 20.8242C18.6719 20.9258 18.3398 21.0977 18.1133 21.3398C17.8945 21.582 17.7188 21.9414 17.5859 22.418C17.4609 22.9023 17.3203 23.5625 17.1641 24.3984C17.0938 24.7266 16.9062 24.8906 16.6016 24.8906C16.2891 24.8906 16.1055 24.7031 16.0508 24.3281C15.9336 23.5078 15.8164 22.8633 15.6992 22.3945C15.582 21.9258 15.4062 21.5742 15.1719 21.3398C14.9297 21.1055 14.582 20.9336 14.1289 20.8242C13.668 20.7227 13.0391 20.625 12.2422 20.5312C11.8906 20.4922 11.7148 20.3086 11.7148 19.9805ZM22.2852 14.2031C22.2852 14.0938 22.3203 14.0039 22.3906 13.9336C22.4609 13.8633 22.5508 13.8164 22.6602 13.793C23.2383 13.6914 23.6914 13.5977 24.0195 13.5117C24.3555 13.4336 24.6094 13.3086 24.7812 13.1367C24.9609 12.9727 25.0977 12.7188 25.1914 12.375C25.293 12.0312 25.4023 11.5469 25.5195 10.9219C25.5664 10.6719 25.7031 10.5469 25.9297 10.5469C26.1719 10.5469 26.3125 10.6758 26.3516 10.9336C26.4531 11.5508 26.5469 12.0312 26.6328 12.375C26.7266 12.7266 26.8594 12.9883 27.0312 13.1602C27.2031 13.3398 27.457 13.4688 27.793 13.5469C28.1367 13.625 28.6094 13.707 29.2109 13.793C29.4609 13.8242 29.5859 13.9609 29.5859 14.2031C29.5859 14.4375 29.457 14.5742 29.1992 14.6133C28.6211 14.707 28.1641 14.793 27.8281 14.8711C27.5 14.957 27.25 15.0859 27.0781 15.2578C26.9062 15.4297 26.7695 15.6875 26.668 16.0312C26.5742 16.3828 26.4688 16.8711 26.3516 17.4961C26.3047 17.7461 26.1641 17.8711 25.9297 17.8711C25.7031 17.8711 25.5664 17.7383 25.5195 17.4727C25.418 16.8555 25.3203 16.3711 25.2266 16.0195C25.1328 15.6758 24.9961 15.418 24.8164 15.2461C24.6445 15.0742 24.3906 14.9453 24.0547 14.8594C23.7188 14.7812 23.2578 14.6992 22.6719 14.6133C22.4141 14.582 22.2852 14.4453 22.2852 14.2031ZM30.2656 20.7305C30.2656 20.5195 30.375 20.3984 30.5938 20.3672C31.1016 20.2812 31.5 20.1992 31.7891 20.1211C32.0781 20.0508 32.2969 19.9414 32.4453 19.793C32.5938 19.6445 32.7109 19.418 32.7969 19.1133C32.8828 18.8164 32.9844 18.3984 33.1016 17.8594C33.1406 17.6328 33.2578 17.5195 33.4531 17.5195C33.6719 17.5195 33.7969 17.6328 33.8281 17.8594C33.9141 18.4062 33.9961 18.8242 34.0742 19.1133C34.1523 19.4102 34.2656 19.6289 34.4141 19.7695C34.5703 19.918 34.7969 20.0273 35.0938 20.0977C35.3906 20.1758 35.7969 20.2656 36.3125 20.3672C36.5391 20.4062 36.6523 20.5273 36.6523 20.7305C36.6523 20.9414 36.5391 21.0625 36.3125 21.0938C35.8047 21.1719 35.4102 21.2461 35.1289 21.3164C34.8477 21.3867 34.6328 21.4961 34.4844 21.6445C34.3359 21.793 34.2148 22.0195 34.1211 22.3242C34.0352 22.6289 33.9375 23.0547 33.8281 23.6016C33.7812 23.8203 33.6562 23.9297 33.4531 23.9297C33.2578 23.9297 33.1406 23.8125 33.1016 23.5781C32.9922 23.0469 32.8945 22.6328 32.8086 22.3359C32.7305 22.0391 32.6172 21.8164 32.4688 21.668C32.3203 21.5273 32.0977 21.418 31.8008 21.3398C31.5117 21.2695 31.1133 21.1875 30.6055 21.0938C30.3789 21.0547 30.2656 20.9336 30.2656 20.7305ZM26.0469 31.3008C26.0469 31.0586 26.168 30.9219 26.4102 30.8906C26.9961 30.8047 27.457 30.7188 27.793 30.6328C28.1289 30.5547 28.3828 30.4297 28.5547 30.2578C28.7266 30.0859 28.8594 29.8242 28.9531 29.4727C29.0547 29.1289 29.1641 28.6445 29.2812 28.0195C29.3203 27.7695 29.457 27.6445 29.6914 27.6445C29.8008 27.6367 29.8906 27.668 29.9609 27.7383C30.0391 27.8164 30.0859 27.9141 30.1016 28.0312C30.1875 28.6484 30.2734 29.1289 30.3594 29.4727C30.4531 29.8164 30.5898 30.0703 30.7695 30.2344C30.9492 30.4062 31.2109 30.5312 31.5547 30.6094C31.8984 30.6953 32.3672 30.7891 32.9609 30.8906C33.2109 30.9297 33.3359 31.0664 33.3359 31.3008C33.3359 31.543 33.207 31.6797 32.9492 31.7109C32.3711 31.7969 31.9141 31.8789 31.5781 31.957C31.25 32.0352 31 32.1602 30.8281 32.332C30.6562 32.5039 30.5195 32.7656 30.418 33.1172C30.3242 33.4766 30.2188 33.9648 30.1016 34.582C30.0547 34.8398 29.918 34.9688 29.6914 34.9688C29.4648 34.9688 29.3281 34.832 29.2812 34.5586C29.1719 33.9492 29.0703 33.4727 28.9766 33.1289C28.8828 32.793 28.7461 32.543 28.5664 32.3789C28.3945 32.2148 28.1406 32.0898 27.8047 32.0039C27.4688 31.9258 27.0078 31.8281 26.4219 31.7109C26.1719 31.6641 26.0469 31.5273 26.0469 31.3008ZM12.1953 34.3477L23.4102 23.2266C23.7617 22.875 24.1875 22.6992 24.6875 22.6992C25.1953 22.6992 25.6328 22.875 26 23.2266C26.3516 23.5703 26.5273 24 26.5273 24.5156C26.5273 25.0312 26.3516 25.4609 26 25.8047L14.7852 36.9375C14.4258 37.2812 13.9961 37.4531 13.4961 37.4531C12.9883 37.4531 12.5547 37.2812 12.1953 36.9375C11.8438 36.5859 11.668 36.1523 11.668 35.6367C11.668 35.1289 11.8438 34.6992 12.1953 34.3477ZM13.3438 35.0977C13.1953 35.2461 13.1055 35.4023 13.0742 35.5664C13.043 35.7383 13.0898 35.8906 13.2148 36.0234C13.3633 36.1719 13.5195 36.2266 13.6836 36.1875C13.8477 36.1562 14 36.0703 14.1406 35.9297L19.8594 30.2109L19.0508 29.4141L13.3438 35.0977Z" fill="white"/>
<defs>
<linearGradient id="paint0_linear_294_292" x1="0" y1="0" x2="53.8295" y2="8.04243" gradientUnits="userSpaceOnUse">
<stop stop-color="#FF784E"/>
<stop offset="1" stop-color="#FB347C"/>
</linearGradient>
</defs>
</svg>
