<svg width="340" height="90" viewBox="0 0 340 90" fill="none" xmlns="http://www.w3.org/2000/svg">
<path d="M33.719 3.23999V7.368C33.719 17.832 23.639 29.448 3.191 32.136L8.183 42.408C31.511 38.952 44.951 24.456 44.951 7.368V3.23999H33.719ZM36.119 3.23999V7.368C36.119 24.456 49.559 38.952 72.887 42.408L77.783 32.136C57.431 29.448 47.255 17.736 47.255 7.368V3.23999H36.119ZM33.815 57V89.544H46.487V57H33.815ZM0.311 48.936V59.304H80.663V48.936H0.311ZM145.744 0.647999V52.104H158.512V0.647999H145.744ZM154.96 21.384V31.848H170.32V21.384H154.96ZM120.304 6.408V12.84C120.304 26.568 109.264 38.184 87.8555 44.04L93.0395 54.216C119.248 46.92 134.031 30.312 134.031 6.408H120.304ZM92.0795 6.408V16.68H128.08V6.408H92.0795ZM129.712 53.256C111.76 53.256 99.7595 60.264 99.7595 71.4C99.7595 82.632 111.76 89.64 129.712 89.64C147.664 89.64 159.472 82.632 159.472 71.4C159.472 60.264 147.664 53.256 129.712 53.256ZM129.712 63.144C140.56 63.144 146.992 66.024 146.992 71.4C146.992 76.872 140.56 79.752 129.712 79.752C118.864 79.752 112.432 76.872 112.432 71.4C112.432 66.024 118.864 63.144 129.712 63.144ZM237.896 0.743998V65.544H250.76V0.743998H237.896ZM191.528 77.832V88.008H252.968V77.832H191.528ZM191.528 59.304V83.112H204.296V59.304H191.528ZM197.672 5.544V14.184C197.672 25.992 191.432 38.376 176.552 43.464L182.984 53.64C200.264 47.592 208.232 31.56 208.232 14.184V5.544H197.672ZM200.264 5.544V14.184C200.264 31.368 208.04 46.44 224.84 52.104L231.368 41.928C216.776 37.224 210.728 25.8 210.728 14.184V5.544H200.264ZM285.121 16.2V19.464C285.121 29.544 278.881 39.72 264.577 43.752L270.529 53.736C287.521 48.84 295.393 34.92 295.393 19.464V16.2H285.121ZM287.521 16.2V19.464C287.521 34.056 295.681 47.016 312.769 51.528L318.529 41.64C304.225 37.896 297.889 28.584 297.889 19.464V16.2H287.521ZM267.648 9.86399V19.848H315.361V9.86399H267.648ZM285.121 0.359997V13.8H297.889V0.359997H285.121ZM312.865 24.36V34.632H329.857V24.36H312.865ZM326.785 0.647999V54.312H339.553V0.647999H326.785ZM309.409 55.848C290.593 55.848 278.977 61.992 278.977 72.648C278.977 83.304 290.593 89.544 309.409 89.544C328.225 89.544 339.841 83.304 339.841 72.648C339.841 61.992 328.225 55.848 309.409 55.848ZM309.409 65.544C321.121 65.544 327.169 67.848 327.169 72.648C327.169 77.448 321.121 79.848 309.409 79.848C297.793 79.848 291.745 77.448 291.745 72.648C291.745 67.848 297.793 65.544 309.409 65.544Z" fill="url(#paint0_linear_178_1701)"/>
<defs>
<linearGradient id="paint0_linear_178_1701" x1="-4" y1="-66" x2="380.781" y2="24.0482" gradientUnits="userSpaceOnUse">
<stop stop-color="#FF784E"/>
<stop offset="1" stop-color="#FB347C"/>
</linearGradient>
</defs>
</svg>
