<svg width="22" height="22" viewBox="0 0 22 22" fill="none" xmlns="http://www.w3.org/2000/svg">
<path d="M3.88672 21.8438C2.66016 21.8438 1.73828 21.5391 1.12109 20.9297C0.511719 20.3281 0.207031 19.4219 0.207031 18.2109V3.90234C0.207031 2.69141 0.511719 1.78516 1.12109 1.18359C1.73828 0.574219 2.66016 0.269531 3.88672 0.269531H18.1016C19.3281 0.269531 20.2461 0.574219 20.8555 1.18359C21.4727 1.78516 21.7812 2.69141 21.7812 3.90234V18.2109C21.7812 19.4219 21.4727 20.3281 20.8555 20.9297C20.2461 21.5391 19.3281 21.8438 18.1016 21.8438H3.88672ZM3.91016 19.957H18.0781C18.6562 19.957 19.1016 19.8047 19.4141 19.5C19.7344 19.1875 19.8945 18.7266 19.8945 18.1172V3.99609C19.8945 3.38672 19.7344 2.92969 19.4141 2.625C19.1016 2.3125 18.6562 2.15625 18.0781 2.15625H3.91016C3.32422 2.15625 2.875 2.3125 2.5625 2.625C2.25 2.92969 2.09375 3.38672 2.09375 3.99609V18.1172C2.09375 18.7266 2.25 19.1875 2.5625 19.5C2.875 19.8047 3.32422 19.957 3.91016 19.957ZM8.33984 16.8281C8.16016 16.6562 8.07031 16.4453 8.07031 16.1953C8.07031 15.9453 8.15625 15.7383 8.32812 15.5742L13.1445 11.0391L8.32812 6.51562C8.14844 6.34375 8.0625 6.13281 8.07031 5.88281C8.07812 5.63281 8.17188 5.42578 8.35156 5.26172C8.51562 5.09766 8.71484 5.01953 8.94922 5.02734C9.19141 5.03516 9.40234 5.125 9.58203 5.29688L14.4688 9.89062C14.6875 10.0938 14.832 10.3359 14.9023 10.6172C14.9805 10.8984 14.9805 11.1797 14.9023 11.4609C14.832 11.7422 14.6875 11.9844 14.4688 12.1875L9.58203 16.793C9.41797 16.9492 9.20703 17.0312 8.94922 17.0391C8.69922 17.0469 8.49609 16.9766 8.33984 16.8281Z" fill="#D6D6D6"/>
</svg>
